<svg width="1200" height="630" viewBox="0 0 1200 630" fill="none" xmlns="http://www.w3.org/2000/svg">
<g clip-path="url(#clip0_19_2)">
<rect width="1200" height="630" fill="#FFDFAE"/>
<path d="M216.313 150.625H190.666V225H169.523V150.625H143.877V133.86H216.313V150.625ZM286.32 190.158L277.876 165.199C277.25 163.615 276.583 161.759 275.874 159.632C275.165 157.464 274.456 155.128 273.747 152.626C273.122 155.17 272.454 157.526 271.746 159.695C271.037 161.863 270.369 163.74 269.744 165.325L261.362 190.158H286.32ZM319.911 225H303.522C301.688 225 300.207 224.583 299.081 223.749C297.955 222.873 297.1 221.768 296.516 220.434L291.137 204.545H256.483L251.103 220.434C250.644 221.601 249.81 222.665 248.601 223.624C247.433 224.541 245.974 225 244.222 225H227.708L262.988 133.86H284.631L319.911 225ZM449.576 133.86V225H430.935V172.581C430.935 171.371 430.956 170.058 430.997 168.64C431.081 167.222 431.206 165.783 431.373 164.324L407.165 211.176C406.414 212.635 405.392 213.74 404.1 214.491C402.849 215.242 401.41 215.617 399.784 215.617H396.906C395.28 215.617 393.82 215.242 392.527 214.491C391.276 213.74 390.275 212.635 389.525 211.176L365.317 164.199C365.442 165.7 365.546 167.18 365.63 168.64C365.713 170.058 365.755 171.371 365.755 172.581V225H347.114V133.86H363.253C364.17 133.86 364.962 133.881 365.63 133.923C366.339 133.965 366.964 134.09 367.506 134.298C368.048 134.507 368.528 134.84 368.945 135.299C369.404 135.716 369.842 136.321 370.259 137.113L393.716 183.34C394.55 184.924 395.342 186.572 396.093 188.281C396.885 189.991 397.636 191.743 398.345 193.536C399.054 191.701 399.784 189.908 400.534 188.156C401.327 186.405 402.161 184.737 403.036 183.152L426.431 137.113C426.848 136.321 427.265 135.716 427.682 135.299C428.141 134.84 428.641 134.507 429.183 134.298C429.726 134.09 430.33 133.965 430.997 133.923C431.706 133.881 432.52 133.86 433.437 133.86H449.576ZM552.721 150.625H527.074V225H505.931V150.625H480.284V133.86H552.721V150.625ZM622.728 190.158L614.283 165.199C613.658 163.615 612.991 161.759 612.282 159.632C611.573 157.464 610.864 155.128 610.155 152.626C609.529 155.17 608.862 157.526 608.153 159.695C607.444 161.863 606.777 163.74 606.151 165.325L597.769 190.158H622.728ZM656.319 225H639.93C638.095 225 636.615 224.583 635.489 223.749C634.363 222.873 633.508 221.768 632.924 220.434L627.545 204.545H592.89L587.511 220.434C587.052 221.601 586.218 222.665 585.009 223.624C583.841 224.541 582.381 225 580.63 225H564.116L599.396 133.86H621.039L656.319 225ZM785.983 133.86V225H767.343V172.581C767.343 171.371 767.363 170.058 767.405 168.64C767.488 167.222 767.614 165.783 767.78 164.324L743.572 211.176C742.822 212.635 741.8 213.74 740.507 214.491C739.256 215.242 737.818 215.617 736.191 215.617H733.314C731.687 215.617 730.228 215.242 728.935 214.491C727.684 213.74 726.683 212.635 725.933 211.176L701.725 164.199C701.85 165.7 701.954 167.18 702.037 168.64C702.121 170.058 702.162 171.371 702.162 172.581V225H683.522V133.86H699.66C700.578 133.86 701.37 133.881 702.037 133.923C702.746 133.965 703.372 134.09 703.914 134.298C704.456 134.507 704.936 134.84 705.353 135.299C705.811 135.716 706.249 136.321 706.666 137.113L730.124 183.34C730.958 184.924 731.75 186.572 732.501 188.281C733.293 189.991 734.044 191.743 734.752 193.536C735.461 191.701 736.191 189.908 736.942 188.156C737.734 186.405 738.568 184.737 739.444 183.152L762.839 137.113C763.256 136.321 763.673 135.716 764.09 135.299C764.549 134.84 765.049 134.507 765.591 134.298C766.133 134.09 766.738 133.965 767.405 133.923C768.114 133.881 768.927 133.86 769.845 133.86H785.983ZM253.282 272.86V364H234.641V311.581C234.641 310.371 234.662 309.058 234.703 307.64C234.787 306.222 234.912 304.783 235.079 303.324L210.871 350.176C210.12 351.635 209.098 352.74 207.806 353.491C206.555 354.242 205.116 354.617 203.49 354.617H200.612C198.986 354.617 197.526 354.242 196.233 353.491C194.982 352.74 193.981 351.635 193.231 350.176L169.023 303.199C169.148 304.7 169.252 306.18 169.336 307.64C169.419 309.058 169.461 310.371 169.461 311.581V364H150.82V272.86H166.959C167.876 272.86 168.668 272.881 169.336 272.923C170.045 272.965 170.67 273.09 171.212 273.298C171.754 273.507 172.234 273.84 172.651 274.299C173.11 274.716 173.548 275.321 173.965 276.113L197.422 322.34C198.256 323.924 199.048 325.572 199.799 327.281C200.591 328.991 201.342 330.743 202.051 332.536C202.76 330.701 203.49 328.908 204.24 327.156C205.032 325.405 205.867 323.737 206.742 322.152L230.137 276.113C230.554 275.321 230.971 274.716 231.388 274.299C231.847 273.84 232.347 273.507 232.889 273.298C233.432 273.09 234.036 272.965 234.703 272.923C235.412 272.881 236.226 272.86 237.143 272.86H253.282ZM339.099 329.158L330.655 304.199C330.029 302.615 329.362 300.759 328.653 298.632C327.944 296.464 327.235 294.128 326.526 291.626C325.901 294.17 325.233 296.526 324.525 298.695C323.816 300.863 323.148 302.74 322.523 304.325L314.141 329.158H339.099ZM372.69 364H356.301C354.467 364 352.986 363.583 351.86 362.749C350.734 361.873 349.879 360.768 349.296 359.434L343.916 343.545H309.262L303.882 359.434C303.423 360.601 302.589 361.665 301.38 362.624C300.212 363.541 298.753 364 297.001 364H280.487L315.767 272.86H337.41L372.69 364ZM421.036 309.767H424.414C427.541 309.767 429.793 308.787 431.169 306.827L451.687 277.051C452.896 275.467 454.189 274.383 455.565 273.799C456.983 273.173 458.734 272.86 460.82 272.86H479.21L452.187 309.704C450.269 312.248 448.205 314.083 445.994 315.209C447.579 315.793 449.018 316.606 450.311 317.648C451.603 318.691 452.813 320.046 453.939 321.714L481.462 364H462.571C461.362 364 460.319 363.917 459.443 363.75C458.609 363.583 457.88 363.333 457.254 362.999C456.628 362.666 456.086 362.269 455.628 361.811C455.169 361.31 454.731 360.747 454.314 360.122L433.672 328.407C432.921 327.24 431.962 326.427 430.794 325.968C429.668 325.467 428.125 325.217 426.165 325.217H421.036V364H399.893V272.86H421.036V309.767ZM529.509 289.124V310.392H558.159V326.03H529.509V347.736H566.916V364H508.242V272.86H566.916V289.124H529.509ZM629.624 315.709C632.502 315.709 634.941 315.355 636.943 314.646C638.987 313.895 640.655 312.873 641.947 311.581C643.24 310.288 644.178 308.787 644.762 307.077C645.346 305.325 645.638 303.449 645.638 301.447C645.638 297.444 644.324 294.316 641.697 292.064C639.112 289.812 635.087 288.686 629.624 288.686H621.117V315.709H629.624ZM674.537 364H655.396C651.852 364 649.308 362.666 647.765 359.997L632.627 333.537C631.918 332.411 631.126 331.598 630.25 331.097C629.374 330.555 628.123 330.284 626.497 330.284H621.117V364H599.974V272.86H629.624C636.213 272.86 641.822 273.548 646.451 274.925C651.122 276.259 654.917 278.136 657.836 280.554C660.797 282.973 662.944 285.83 664.279 289.124C665.613 292.419 666.28 296.005 666.28 299.883C666.28 302.844 665.884 305.638 665.092 308.265C664.3 310.893 663.132 313.332 661.589 315.584C660.046 317.794 658.128 319.775 655.834 321.527C653.582 323.278 650.976 324.717 648.015 325.843C649.391 326.552 650.684 327.448 651.893 328.532C653.103 329.575 654.187 330.826 655.146 332.286L674.537 364Z" fill="#181818"/>
<path d="M173.951 422.01V446H171.105V428.372C171.105 428.137 171.111 427.886 171.122 427.618C171.144 427.35 171.167 427.077 171.189 426.798L162.952 441.798C162.696 442.3 162.305 442.551 161.781 442.551H161.312C160.787 442.551 160.397 442.3 160.14 441.798L151.736 426.731C151.803 427.323 151.836 427.869 151.836 428.372V446H148.99V422.01H151.384C151.675 422.01 151.898 422.038 152.054 422.094C152.21 422.15 152.361 422.306 152.506 422.563L160.793 437.328C160.927 437.596 161.055 437.875 161.178 438.165C161.312 438.455 161.435 438.751 161.546 439.052C161.658 438.751 161.775 438.455 161.898 438.165C162.02 437.864 162.154 437.579 162.299 437.311L170.436 422.563C170.57 422.306 170.715 422.15 170.871 422.094C171.038 422.038 171.267 422.01 171.557 422.01H173.951ZM198.852 437.094L195.085 427.334C194.974 427.044 194.857 426.709 194.734 426.329C194.611 425.939 194.494 425.526 194.382 425.09C194.148 425.994 193.908 426.748 193.662 427.35L189.896 437.094H198.852ZM205.616 446H203.104C202.814 446 202.58 445.927 202.401 445.782C202.223 445.637 202.089 445.453 202 445.23L199.756 439.438H188.992L186.748 445.23C186.681 445.431 186.553 445.609 186.363 445.766C186.174 445.922 185.939 446 185.66 446H183.149L192.742 422.01H196.023L205.616 446ZM218.029 432.523H219.251C219.676 432.523 220.016 432.473 220.273 432.373C220.529 432.261 220.764 432.077 220.976 431.82L228.961 422.78C229.184 422.49 229.419 422.289 229.664 422.178C229.91 422.066 230.211 422.01 230.568 422.01H233.314L224.173 432.339C223.95 432.607 223.732 432.83 223.52 433.009C223.319 433.176 223.102 433.316 222.867 433.427C223.169 433.528 223.442 433.679 223.688 433.879C223.933 434.069 224.173 434.32 224.408 434.633L233.95 446H231.138C230.925 446 230.741 445.989 230.585 445.967C230.44 445.933 230.312 445.888 230.2 445.833C230.088 445.766 229.988 445.693 229.899 445.615C229.821 445.526 229.742 445.425 229.664 445.314L221.394 435.788C221.171 435.509 220.931 435.314 220.674 435.202C220.418 435.079 220.027 435.018 219.503 435.018H218.029V446H214.798V422.01H218.029V432.523ZM257.793 443.355L257.776 446H242.994V422.01H257.776V424.655H246.242V432.624H255.583V435.169H246.242V443.355H257.793ZM280.616 425.76C280.515 425.928 280.404 426.056 280.281 426.145C280.169 426.223 280.03 426.262 279.863 426.262C279.673 426.262 279.45 426.167 279.193 425.978C278.936 425.788 278.613 425.582 278.222 425.358C277.842 425.124 277.379 424.912 276.832 424.722C276.297 424.532 275.644 424.438 274.874 424.438C274.148 424.438 273.507 424.538 272.949 424.739C272.402 424.929 271.938 425.191 271.559 425.526C271.191 425.861 270.912 426.257 270.722 426.714C270.532 427.161 270.437 427.646 270.437 428.171C270.437 428.84 270.599 429.398 270.923 429.845C271.258 430.28 271.693 430.654 272.229 430.967C272.776 431.279 273.389 431.552 274.07 431.787C274.762 432.01 275.465 432.244 276.18 432.49C276.905 432.736 277.608 433.015 278.289 433.327C278.981 433.628 279.595 434.013 280.13 434.482C280.677 434.951 281.113 435.526 281.436 436.206C281.771 436.887 281.938 437.724 281.938 438.718C281.938 439.767 281.76 440.754 281.403 441.681C281.046 442.596 280.521 443.394 279.829 444.075C279.148 444.756 278.306 445.291 277.301 445.682C276.308 446.073 275.175 446.268 273.903 446.268C272.34 446.268 270.923 445.989 269.651 445.431C268.378 444.862 267.29 444.097 266.386 443.137L267.324 441.597C267.413 441.474 267.519 441.374 267.642 441.296C267.776 441.206 267.921 441.162 268.077 441.162C268.222 441.162 268.384 441.223 268.562 441.346C268.752 441.458 268.964 441.603 269.199 441.781C269.433 441.96 269.701 442.155 270.002 442.367C270.303 442.579 270.644 442.775 271.023 442.953C271.414 443.132 271.855 443.282 272.346 443.405C272.837 443.517 273.389 443.573 274.003 443.573C274.773 443.573 275.46 443.467 276.062 443.254C276.665 443.042 277.173 442.747 277.586 442.367C278.01 441.977 278.334 441.513 278.557 440.978C278.78 440.442 278.892 439.845 278.892 439.186C278.892 438.461 278.724 437.869 278.389 437.412C278.066 436.943 277.636 436.552 277.1 436.24C276.565 435.927 275.951 435.665 275.259 435.453C274.567 435.23 273.864 435.007 273.149 434.784C272.435 434.549 271.732 434.281 271.04 433.98C270.348 433.679 269.734 433.288 269.199 432.808C268.663 432.328 268.228 431.731 267.893 431.017C267.569 430.291 267.407 429.398 267.407 428.338C267.407 427.49 267.569 426.67 267.893 425.877C268.228 425.085 268.707 424.382 269.332 423.768C269.969 423.154 270.744 422.663 271.659 422.295C272.586 421.926 273.646 421.742 274.84 421.742C276.18 421.742 277.396 421.954 278.49 422.378C279.595 422.803 280.566 423.416 281.403 424.22L280.616 425.76ZM314.843 436.441V446H311.596V436.441L302.807 422.01H305.653C305.943 422.01 306.172 422.083 306.339 422.228C306.506 422.362 306.652 422.54 306.774 422.763L312.265 432.088C312.466 432.479 312.65 432.847 312.818 433.193C312.985 433.528 313.13 433.868 313.253 434.214C313.376 433.868 313.515 433.528 313.672 433.193C313.828 432.847 314.001 432.479 314.191 432.088L319.665 422.763C319.765 422.574 319.905 422.401 320.083 422.244C320.262 422.088 320.491 422.01 320.77 422.01H323.632L314.843 436.441ZM353.647 434.013C353.647 435.81 353.362 437.462 352.793 438.969C352.224 440.464 351.421 441.753 350.383 442.836C349.345 443.919 348.095 444.761 346.633 445.364C345.182 445.955 343.575 446.251 341.811 446.251C340.048 446.251 338.441 445.955 336.99 445.364C335.539 444.761 334.294 443.919 333.256 442.836C332.219 441.753 331.415 440.464 330.846 438.969C330.277 437.462 329.992 435.81 329.992 434.013C329.992 432.217 330.277 430.57 330.846 429.075C331.415 427.568 332.219 426.273 333.256 425.191C334.294 424.097 335.539 423.249 336.99 422.646C338.441 422.044 340.048 421.742 341.811 421.742C343.575 421.742 345.182 422.044 346.633 422.646C348.095 423.249 349.345 424.097 350.383 425.191C351.421 426.273 352.224 427.568 352.793 429.075C353.362 430.57 353.647 432.217 353.647 434.013ZM350.316 434.013C350.316 432.54 350.115 431.218 349.713 430.046C349.311 428.874 348.742 427.886 348.005 427.083C347.269 426.268 346.376 425.643 345.327 425.208C344.278 424.772 343.106 424.555 341.811 424.555C340.528 424.555 339.361 424.772 338.312 425.208C337.263 425.643 336.365 426.268 335.617 427.083C334.88 427.886 334.311 428.874 333.909 430.046C333.508 431.218 333.307 432.54 333.307 434.013C333.307 435.487 333.508 436.809 333.909 437.981C334.311 439.142 334.88 440.129 335.617 440.944C336.365 441.748 337.263 442.367 338.312 442.802C339.361 443.227 340.528 443.439 341.811 443.439C343.106 443.439 344.278 443.227 345.327 442.802C346.376 442.367 347.269 441.748 348.005 440.944C348.742 440.129 349.311 439.142 349.713 437.981C350.115 436.809 350.316 435.487 350.316 434.013ZM373.578 443.422C374.572 443.422 375.459 443.254 376.24 442.92C377.021 442.585 377.68 442.116 378.216 441.513C378.762 440.911 379.175 440.191 379.454 439.354C379.745 438.517 379.89 437.596 379.89 436.592V422.01H383.121V436.592C383.121 437.975 382.897 439.259 382.451 440.442C382.016 441.625 381.385 442.652 380.559 443.522C379.745 444.382 378.746 445.057 377.563 445.548C376.38 446.039 375.052 446.285 373.578 446.285C372.105 446.285 370.777 446.039 369.594 445.548C368.411 445.057 367.406 444.382 366.581 443.522C365.755 442.652 365.118 441.625 364.672 440.442C364.237 439.259 364.019 437.975 364.019 436.592V422.01H367.25V436.575C367.25 437.579 367.39 438.5 367.669 439.337C367.959 440.174 368.372 440.894 368.908 441.497C369.454 442.099 370.118 442.574 370.9 442.92C371.692 443.254 372.585 443.422 373.578 443.422ZM161.73 493.094L157.964 483.334C157.852 483.044 157.735 482.709 157.612 482.329C157.489 481.939 157.372 481.526 157.26 481.09C157.026 481.994 156.786 482.748 156.541 483.35L152.774 493.094H161.73ZM168.494 502H165.983C165.692 502 165.458 501.927 165.279 501.782C165.101 501.637 164.967 501.453 164.878 501.23L162.634 495.438H151.87L149.627 501.23C149.56 501.431 149.431 501.609 149.241 501.766C149.052 501.922 148.817 502 148.538 502H146.027L155.62 478.01H158.901L168.494 502ZM204.769 499.271V502H191.158V478.01H194.389V499.271H204.769ZM217.631 502H214.384V478.01H217.631V502ZM246.017 480.739H238.249V502H235.018V480.739H227.233V478.01H246.017V480.739ZM271.825 480.739H264.057V502H260.826V480.739H253.042V478.01H271.825V480.739ZM295.022 499.271V502H281.412V478.01H284.643V499.271H295.022ZM319.436 499.355L319.42 502H304.637V478.01H319.42V480.655H307.885V488.624H317.227V491.169H307.885V499.355H319.436ZM364.018 478.01V502H360.77V491.085H347.83V502H344.582V478.01H347.83V488.708H360.77V478.01H364.018ZM388.918 493.094L385.151 483.334C385.039 483.044 384.922 482.709 384.799 482.329C384.677 481.939 384.56 481.526 384.448 481.09C384.214 481.994 383.974 482.748 383.728 483.35L379.961 493.094H388.918ZM395.681 502H393.17C392.88 502 392.645 501.927 392.467 501.782C392.288 501.637 392.154 501.453 392.065 501.23L389.822 495.438H379.057L376.814 501.23C376.747 501.431 376.619 501.609 376.429 501.766C376.239 501.922 376.005 502 375.726 502H373.215L382.807 478.01H386.089L395.681 502ZM411.945 490.449C412.872 490.449 413.686 490.326 414.39 490.08C415.104 489.835 415.701 489.494 416.181 489.059C416.672 488.613 417.04 488.083 417.286 487.469C417.531 486.855 417.654 486.18 417.654 485.443C417.654 483.914 417.18 482.72 416.231 481.861C415.294 481.001 413.865 480.571 411.945 480.571H408.095V490.449H411.945ZM411.945 478.01C413.463 478.01 414.78 478.189 415.896 478.546C417.023 478.892 417.955 479.388 418.692 480.036C419.429 480.683 419.975 481.464 420.333 482.38C420.701 483.295 420.885 484.316 420.885 485.443C420.885 486.559 420.69 487.58 420.299 488.507C419.908 489.433 419.334 490.231 418.575 490.901C417.827 491.57 416.895 492.095 415.779 492.474C414.674 492.843 413.396 493.027 411.945 493.027H408.095V502H404.864V478.01H411.945ZM438.081 490.449C439.007 490.449 439.822 490.326 440.525 490.08C441.239 489.835 441.837 489.494 442.316 489.059C442.807 488.613 443.176 488.083 443.421 487.469C443.667 486.855 443.79 486.18 443.79 485.443C443.79 483.914 443.315 482.72 442.367 481.861C441.429 481.001 440.001 480.571 438.081 480.571H434.231V490.449H438.081ZM438.081 478.01C439.599 478.01 440.916 478.189 442.032 478.546C443.159 478.892 444.091 479.388 444.828 480.036C445.564 480.683 446.111 481.464 446.468 482.38C446.837 483.295 447.021 484.316 447.021 485.443C447.021 486.559 446.825 487.58 446.435 488.507C446.044 489.433 445.469 490.231 444.71 490.901C443.963 491.57 443.031 492.095 441.915 492.474C440.81 492.843 439.532 493.027 438.081 493.027H434.231V502H430.999V478.01H438.081ZM465.651 492.441V502H462.404V492.441L453.615 478.01H456.46C456.751 478.01 456.979 478.083 457.147 478.228C457.314 478.362 457.459 478.54 457.582 478.763L463.073 488.088C463.274 488.479 463.458 488.847 463.626 489.193C463.793 489.528 463.938 489.868 464.061 490.214C464.184 489.868 464.323 489.528 464.479 489.193C464.636 488.847 464.809 488.479 464.998 488.088L470.473 478.763C470.573 478.574 470.713 478.401 470.891 478.244C471.07 478.088 471.299 478.01 471.578 478.01H474.44L465.651 492.441ZM486.444 478.01V487.586C486.444 488.088 486.433 488.579 486.411 489.059C486.389 489.539 486.361 490.025 486.327 490.516C486.294 490.996 486.249 491.492 486.193 492.006C486.149 492.508 486.093 493.049 486.026 493.629H484.017C483.95 493.049 483.889 492.508 483.833 492.006C483.788 491.492 483.749 490.996 483.716 490.516C483.682 490.025 483.654 489.539 483.632 489.059C483.61 488.579 483.598 488.088 483.598 487.586V478.01H486.444ZM482.879 500.158C482.879 499.868 482.929 499.595 483.029 499.338C483.141 499.081 483.292 498.858 483.481 498.669C483.671 498.479 483.889 498.328 484.134 498.217C484.391 498.105 484.67 498.049 484.971 498.049C485.261 498.049 485.529 498.105 485.775 498.217C486.031 498.328 486.255 498.479 486.444 498.669C486.634 498.858 486.785 499.081 486.896 499.338C487.008 499.595 487.064 499.868 487.064 500.158C487.064 500.46 487.008 500.739 486.896 500.996C486.785 501.241 486.634 501.459 486.444 501.648C486.255 501.838 486.031 501.983 485.775 502.084C485.529 502.195 485.261 502.251 484.971 502.251C484.67 502.251 484.391 502.195 484.134 502.084C483.889 501.983 483.671 501.838 483.481 501.648C483.292 501.459 483.141 501.241 483.029 500.996C482.929 500.739 482.879 500.46 482.879 500.158ZM501.463 478.01V487.586C501.463 488.088 501.452 488.579 501.43 489.059C501.407 489.539 501.379 490.025 501.346 490.516C501.312 490.996 501.268 491.492 501.212 492.006C501.167 492.508 501.111 493.049 501.044 493.629H499.036C498.969 493.049 498.907 492.508 498.851 492.006C498.807 491.492 498.768 490.996 498.734 490.516C498.701 490.025 498.673 489.539 498.65 489.059C498.628 488.579 498.617 488.088 498.617 487.586V478.01H501.463ZM497.897 500.158C497.897 499.868 497.947 499.595 498.048 499.338C498.159 499.081 498.31 498.858 498.5 498.669C498.69 498.479 498.907 498.328 499.153 498.217C499.409 498.105 499.688 498.049 499.99 498.049C500.28 498.049 500.548 498.105 500.793 498.217C501.05 498.328 501.273 498.479 501.463 498.669C501.653 498.858 501.803 499.081 501.915 499.338C502.027 499.595 502.082 499.868 502.082 500.158C502.082 500.46 502.027 500.739 501.915 500.996C501.803 501.241 501.653 501.459 501.463 501.648C501.273 501.838 501.05 501.983 500.793 502.084C500.548 502.195 500.28 502.251 499.99 502.251C499.688 502.251 499.409 502.195 499.153 502.084C498.907 501.983 498.69 501.838 498.5 501.648C498.31 501.459 498.159 501.241 498.048 500.996C497.947 500.739 497.897 500.46 497.897 500.158Z" fill="#917F65"/>
<g clip-path="url(#clip1_19_2)">
<path fill-rule="evenodd" clip-rule="evenodd" d="M920.04 340.29C906.263 338.349 894.954 343.871 883.939 349.71C874.431 354.751 861.812 361.132 854.455 369.136C848.973 375.102 844.493 383.62 838.771 391.138C836.7 393.863 833.726 396.897 830.294 401.336C826.58 406.141 822.082 417.36 817.833 408.154C816.1 400.888 815.786 392.037 817.852 382.874C824.982 351.257 863.569 346.22 876.617 320.66C882.401 307.329 870.682 306.128 860.093 308.043C831.044 313.304 816.704 336.59 803.034 359.759C795.624 372.322 789.894 385.441 788.368 402.3C751.794 411.776 720.749 427.356 701.89 460.322C685.857 488.351 698.436 519.646 716.836 532.558C731.631 542.941 751.332 546.119 772.698 549.744C793.582 553.288 813.93 554.582 833.333 550.953C849.311 547.967 870.324 541.491 880.254 532.094C884.116 528.444 891.576 518.677 893.149 513.171C898.81 493.36 893.477 476.783 887.889 466.371C885.571 462.052 881.472 457.283 877.769 453.04C873.993 448.717 870.558 443.879 867.114 440.134C862.857 435.507 856.758 432.304 853.524 427.372C851.603 424.441 846.942 415.765 848.903 412.736C858.021 396.277 865.729 385.168 877.828 377.2C892.301 367.669 916.081 369.474 922.339 349.795C922.977 345.513 921.597 342.829 920.04 340.29ZM956.855 646.985C955.726 653.646 953.194 660.922 949.237 666.52C942.784 675.655 937.174 681.883 925.309 684.161C921.191 684.952 916.408 684.484 911.542 685.479C899.853 687.87 885.73 690.707 871.569 690.56C862.566 690.467 851.17 689.123 840.22 688.376C828.725 687.59 817.591 686.798 811.179 683.058C807.4 680.854 801.995 674.936 801.851 671.278C801.67 666.647 804.725 660.691 806.714 658.715C811.084 654.375 818.784 657.565 823.805 653.894C825.599 634.523 835.389 610.305 847.819 597.853C851.67 593.997 856.62 589.307 860.19 587.621C862.844 586.369 866.48 587.175 868.367 584.195C865.332 577.43 857.113 581.964 853.753 584.442C839.246 595.146 830.648 608.966 822.698 629.941C820.14 636.684 817.142 640.605 816.575 649.164C803.73 649.996 796.673 658.137 791.041 668.077C786.979 660.434 793.17 647.15 792.41 639.55C784.969 635.297 777.373 650.255 774.037 655.405C768.794 663.499 764.623 670.604 760.495 675.711C750.525 662.558 749.1 640.752 748.675 618.425C748.263 596.857 749.25 569.905 759.612 553.572C788.463 559.977 815.679 562.292 841.522 555.794C856.487 552.029 871.144 546.73 881.282 539.993C886.287 536.67 890.113 530.974 893.675 525.388C899.112 527.76 902.6 531.675 907.175 534.735C907.114 535.097 907.065 535.453 907.021 535.806C914.588 541.452 920.575 548.411 926.039 555.143C926.416 555.119 926.796 555.089 927.18 555.049C929.686 557.708 931.977 560.546 933.428 564.04C933.356 564.494 933.301 564.938 933.253 565.376C942.359 577.896 948.463 589.341 952.434 601.352C956.721 614.32 958.119 627.71 957.345 641.303C957.27 642.617 957.181 643.937 957.02 645.245C956.983 645.801 956.933 646.374 956.855 646.985Z" fill="#D3D3D3"/>
<path fill-rule="evenodd" clip-rule="evenodd" d="M815.556 657.47C815.556 657.47 837.821 675.434 893.568 666.374C893.568 666.374 938.251 645.834 943.861 675.134C945.998 686.298 929.198 688.349 929.198 688.349C929.198 688.349 842.51 696.722 817.282 689.115C792.055 681.507 795.615 652.882 815.556 657.47Z" fill="white"/>
<path fill-rule="evenodd" clip-rule="evenodd" d="M756.499 674.81C756.499 674.81 753.307 625.994 780.383 611.15C807.46 596.306 829.71 609.102 829.71 609.102L812.372 651.23L789.32 674.534L777.926 658.624L756.499 674.81Z" fill="white"/>
<path fill-rule="evenodd" clip-rule="evenodd" d="M849.466 408.843C858.682 392.206 866.447 380.975 878.861 372.799C884.032 369.394 890.349 367.39 896.458 365.452C908.01 361.788 918.921 358.327 922.788 346.166L925.612 346.724C924.37 361.74 911.531 372.722 903.988 377.932C897.223 382.604 889.78 386.55 882.583 390.366C876.293 393.701 870.352 396.851 865.412 400.2C863.663 401.387 861.932 402.999 860.258 404.558C857.427 407.196 854.498 409.924 851.15 410.932L847.739 411.96L849.466 408.843Z" fill="white"/>
<path fill-rule="evenodd" clip-rule="evenodd" d="M816.235 408.149C814.301 400.043 814.239 389.198 816.182 380.581C820.291 362.358 834.505 352.712 848.25 343.383C859.168 335.974 870.375 329.285 875.965 318.336C874.356 326.476 871.754 333.538 867.479 339.757C866.865 340.651 866.256 341.538 865.661 342.422C864.078 344.772 862.567 347.248 861.105 349.642C858.33 354.189 855.46 358.891 852.012 362.868C850.416 364.709 848.593 366.223 846.828 367.686C845.15 369.079 843.565 370.395 842.199 371.947C840.247 374.162 838.547 376.554 836.747 379.086C835.933 380.231 835.091 381.415 834.221 382.587C828.32 390.531 823.093 397.835 818.887 406.795L817.519 410.59L816.235 408.149Z" fill="white"/>
<path fill-rule="evenodd" clip-rule="evenodd" d="M893.211 486.38C893.211 486.38 914.5 555.52 806.376 557.06C806.376 557.06 785.697 560.125 771.446 548.628L770.646 548.466C806.253 545.498 863.275 535.956 893.211 486.38Z" fill="white"/>
<path fill-rule="evenodd" clip-rule="evenodd" d="M813.098 469.838C811.627 484.253 797.173 497.768 781.651 497.788C775.797 497.793 766.241 497.218 762.942 495.614C758.018 493.219 752.068 482.488 753.178 475.032C762.036 476.124 767.921 480.624 775.926 480.105C788.168 479.311 801.833 472.599 812.618 469.782C812.773 469.246 813.129 469.569 813.098 469.838Z" fill="#FCD9E1"/>
<path fill-rule="evenodd" clip-rule="evenodd" d="M771.687 506.003C759.244 504.556 750.84 498.609 745.994 487.823C744.839 485.253 742.037 471.42 744.915 465.786C745.626 464.393 746.636 463.552 747.916 463.287C748.609 463.143 749.221 463.106 749.787 463.171C751.64 463.387 752.508 464.686 753.205 465.731C753.661 466.413 754.092 467.06 754.753 467.443C758.622 468.062 761.743 469.082 764.502 469.984C767.2 470.866 769.529 471.627 772.107 471.927C772.538 471.977 772.972 472.013 773.396 472.034C784.663 472.593 805.024 464.347 814.217 459.909C815.358 459.359 816.517 459.147 817.662 459.28C818.792 459.411 819.906 459.88 820.97 460.672L821.292 460.912L821.35 461.309C822.906 472.034 820.201 482.08 813.528 490.362C806.232 499.418 794.745 505.328 782.803 506.17C778.807 506.452 775.068 506.395 771.69 506.003C771.689 506.003 771.687 506.003 771.687 506.003ZM754.035 476.126C753.629 482.906 758.9 492.574 763.364 494.745C764.195 495.149 766.032 495.729 770.062 496.197C773.46 496.592 777.792 496.825 781.65 496.822C796.005 496.803 809.864 484.85 811.983 470.953C808.523 471.909 804.789 473.23 800.853 474.622C792.624 477.532 784.117 480.542 775.988 481.07C774.71 481.153 773.448 481.119 772.129 480.966C769.001 480.602 766.163 479.636 763.158 478.613C760.313 477.644 757.379 476.645 754.035 476.126Z" fill="#181818"/>
<path fill-rule="evenodd" clip-rule="evenodd" d="M812.258 453.208C812.09 453.188 811.923 453.164 811.754 453.138C808.614 452.62 805.915 449.978 804.877 446.405C804.23 444.18 804.266 441.714 804.977 439.461C805.2 438.754 807.371 432.586 814.842 432.997L814.905 433L814.966 433.013C816.359 433.295 821.023 434.527 822.569 438.571C823.089 439.932 823.221 441.504 822.952 443.116C821.809 449.975 817.71 453.841 812.258 453.208Z" fill="white" fill-opacity="0.6"/>
<path fill-rule="evenodd" clip-rule="evenodd" d="M747.178 451.624C745.361 451.683 739.351 451.296 738.258 443.789C737.865 440.931 737.992 438.442 738.632 436.351C739.807 432.507 742.412 431.129 744.803 430.289L744.913 430.25L745.025 430.246C750.284 430.073 753.192 432.695 753.668 438.043C753.967 441.39 753.618 444.413 752.659 446.785C751.251 450.27 748.827 451.57 747.178 451.624Z" fill="white" fill-opacity="0.6"/>
<path fill-rule="evenodd" clip-rule="evenodd" d="M812.08 449.299C808.149 454.725 799.7 455.217 796.874 450.45C786.962 433.74 811.135 421.062 814.21 439.336C814.281 439.602 814.333 439.871 814.369 440.142C814.895 443.782 812.864 448.034 812.08 449.299Z" fill="#181818"/>
<path fill-rule="evenodd" clip-rule="evenodd" d="M745.153 447.845C744.837 445.338 744.114 443.149 744.606 440.002C746.135 433.494 753.044 425.915 760.759 430.696C772.043 437.69 758.721 464.979 745.153 447.845Z" fill="#181818"/>
<path fill-rule="evenodd" clip-rule="evenodd" d="M759.703 688.329C753.287 687.584 749.729 676.544 747.603 669.948C747.364 669.206 747.147 668.534 746.951 667.956C744.093 659.523 741.486 651.274 740.972 643.072C738.504 603.516 741.654 573.501 750.337 553.804C726.261 548.925 708.829 539.774 698.503 526.592C688.008 513.187 683.889 495.461 687.203 477.96C692.111 452.052 710.044 435.029 725.118 423.093C743.083 408.868 765.295 400.797 782.864 395.356C785.185 378.006 793.887 361.809 800.282 351.064C807.912 338.244 816.298 325.209 825.911 316.712C834.688 308.952 850.89 299.966 867.664 300.179C868.496 300.189 869.37 300.247 870.263 300.351C875.815 300.996 882.702 303.567 884.702 307.687C888.4 315.302 882.557 328.415 879.874 333.699C877.93 337.526 875.695 340.725 873.533 343.818C872.402 345.437 871.304 347.007 870.286 348.612C871.771 347.818 873.317 346.961 874.907 346.079C879.375 343.602 884.438 340.794 889.865 338.44C901.758 333.285 910.9 331.169 917.813 331.972C921.275 332.374 924.128 333.541 926.294 335.441C931.029 339.589 931.488 348.85 929.909 355.698C925.955 372.877 910.08 382.778 897.325 390.733L896.557 391.212C892.551 393.713 888.506 396.025 884.594 398.26C874.786 403.864 865.51 409.165 858.348 416.538C859.608 422.121 863.881 426.214 868.019 430.176C868.661 430.791 869.299 431.403 869.923 432.016C874.219 436.238 877.709 440.68 881.404 445.384C882.031 446.182 882.662 446.984 883.299 447.79C883.829 448.459 884.356 449.121 884.878 449.776C893.257 460.307 900.493 469.4 903.089 485.733C904.373 493.814 903.374 510.924 899.1 519.866C916.603 529.802 931.182 544.943 944.884 567.39C945.978 569.181 947.116 570.989 948.218 572.738C952.934 580.227 957.811 587.972 961.028 597.244C964.954 608.56 965.844 621.022 966.343 633.886C971.288 632.611 976.039 632.191 980.179 632.672C989.729 633.781 995.321 639.676 995.52 648.846C995.675 655.973 993.365 664.625 989.344 671.992C985.167 679.643 980.166 684.249 975.621 684.63C974.644 684.712 973.65 684.695 972.669 684.581L972.668 684.581C967.752 684.01 963.709 681.157 959.799 678.397C957.796 676.983 955.884 675.633 953.986 674.698C945.142 689.82 926.824 691.93 907.458 694.163C905.346 694.406 903.213 694.652 901.065 694.917C898.426 695.244 895.77 695.657 892.959 696.094C885.775 697.212 878.347 698.368 870.332 698.189C864.007 698.047 856.763 697.251 849.757 696.481C844.737 695.93 839.546 695.36 834.653 695.021C831.71 694.816 829.1 694.58 826.672 694.298C813.989 692.825 800.446 689.663 794.735 677.729C794.555 678.015 794.381 678.305 794.208 678.592C792.969 680.655 791.427 683.222 787.945 682.818C787.721 682.792 787.488 682.753 787.253 682.702C781.756 681.508 781.083 668.318 781.175 660.518C779.35 663.396 777.465 666.144 775.51 668.996C773.48 671.958 771.38 675.021 769.282 678.336C768.919 678.911 768.492 679.666 768.04 680.466C765.993 684.085 763.673 688.186 760.736 688.358C760.392 688.378 760.044 688.369 759.703 688.329ZM864.037 579.249C866.59 579.545 868.544 581.051 869.689 583.602L870.008 584.313L869.591 584.971C868.027 587.441 865.515 587.882 863.496 588.235C862.505 588.409 861.568 588.573 860.809 588.931C857.365 590.557 852.33 595.386 848.844 598.877C837.226 610.517 827.081 634.226 825.248 654.027L825.187 654.678L824.66 655.063C821.93 657.06 818.69 657.268 815.556 657.47C812.514 657.667 809.64 657.852 807.735 659.743C806.077 661.39 803.134 666.998 803.299 671.221C803.414 674.154 808.247 679.671 811.909 681.806C815.179 683.714 820.136 685.001 827.508 685.857C831.644 686.338 836.253 686.653 840.318 686.93C844.144 687.191 848.049 687.527 851.825 687.852C858.997 688.468 865.771 689.051 871.584 689.11C885.83 689.259 899.926 686.376 911.251 684.06C913.947 683.508 916.552 683.39 919.071 683.277C921.198 683.18 923.207 683.09 925.035 682.738C936.793 680.482 942.203 673.967 948.054 665.685C951.529 660.768 954.214 653.874 955.422 646.77C960.345 608.996 945.63 583.173 932.259 564.896L932.157 564.756L932.091 564.596C930.635 561.091 928.258 558.306 926.126 556.043L926.088 556.003L926.054 555.96C920.395 548.961 914.214 541.65 906.345 535.924C904.667 534.8 903.129 533.563 901.641 532.367C899.261 530.454 896.999 528.635 894.21 527.239C890.628 532.8 886.943 537.974 882.083 541.201C870.311 549.025 853.721 554.22 841.876 557.201C825.464 561.327 807.577 562.182 787.192 559.814C778.796 558.838 769.991 557.33 760.305 555.209C750.428 571.686 749.755 599.084 750.124 618.398C750.516 638.976 751.664 660.096 760.547 673.292C763.139 669.863 765.798 665.662 768.814 660.898C770.092 658.878 771.414 656.791 772.821 654.618C773.236 653.978 773.718 653.183 774.276 652.262C778.051 646.031 783.756 636.616 790.455 637.395C791.373 637.501 792.273 637.804 793.129 638.293L793.777 638.664L793.852 639.407C794.17 642.58 793.394 646.489 792.574 650.627C791.592 655.579 790.582 660.666 791.376 664.659C796.312 656.655 803.165 649.067 815.232 647.824C815.794 642.075 817.466 638.348 819.231 634.417C819.932 632.855 820.658 631.239 821.344 629.428C829.892 606.874 839.033 593.503 852.893 583.277C854.355 582.198 859.481 578.72 864.037 579.249ZM959.383 666.203C963.719 669.778 968.565 672.391 974.144 674.165C979.707 669.869 985.294 661.027 984.893 648.512L984.89 648.411L984.901 648.311C985.411 643.578 981.837 642.157 978.749 641.798C974.017 641.248 968.057 643.067 966.227 645.572C964.821 652.429 962.904 660.13 959.383 666.203ZM870.021 308.918C867.383 308.611 864.039 308.802 860.351 309.469C831.282 314.733 816.938 339.045 804.282 360.495C798.046 371.066 791.45 384.316 789.811 402.431L789.719 403.447L788.732 403.702C745.875 414.807 719.481 432.491 703.148 461.041C687.985 487.549 698.88 518.187 717.669 531.372C731.9 541.36 751.214 544.633 771.661 548.098L772.941 548.315C777.781 549.137 782.472 549.813 786.884 550.326C804.285 552.347 819.392 552.087 833.067 549.529C849.124 546.528 869.691 540.096 879.259 531.041C883.182 527.334 890.315 517.82 891.756 512.773C897.325 493.286 892.033 477.156 886.613 467.056C884.449 463.023 880.679 458.576 876.678 453.993C874.916 451.975 873.229 449.85 871.598 447.794C869.68 445.378 867.869 443.095 866.047 441.115C864.339 439.257 862.253 437.585 860.235 435.968C857.326 433.636 854.318 431.225 852.312 428.167C852.235 428.05 844.739 416.503 847.687 411.949L847.976 411.502L848.485 411.349C851.187 410.535 853.745 408.152 856.453 405.629C858.207 403.995 860.021 402.305 861.956 400.993C867.025 397.556 873.034 394.37 879.395 390.997C886.519 387.22 893.885 383.314 900.511 378.738C907.632 373.819 919.75 363.503 920.894 349.675L920.898 349.628L920.905 349.581C921.426 346.09 920.469 343.853 919.158 341.635C919.067 341.624 918.975 341.613 918.884 341.602C906.325 340.143 895.935 344.99 884.617 350.99L882.736 351.985C873.602 356.809 862.234 362.813 855.52 370.117C852.392 373.521 849.588 377.794 846.619 382.317C844.509 385.533 842.326 388.858 839.923 392.015C838.952 393.294 837.822 394.598 836.514 396.108C835 397.856 833.283 399.838 831.438 402.222C830.718 403.154 829.951 404.366 829.139 405.649C826.705 409.496 824.187 413.473 820.963 413.098C819.224 412.896 817.77 411.477 816.516 408.761L816.233 408.148L816.519 407.538C820.839 398.336 826.154 390.905 832.15 382.833C833.003 381.686 833.836 380.514 834.641 379.381C836.405 376.9 838.229 374.335 840.28 372.006C841.795 370.285 843.543 368.834 845.234 367.431C846.984 365.978 848.638 364.606 850.078 362.944C853.369 359.149 856.049 354.757 858.888 350.107C860.366 347.685 861.894 345.181 863.513 342.777C864.113 341.886 864.727 340.992 865.347 340.091C869.455 334.113 873.702 327.931 875.195 320.379L875.225 320.226L875.287 320.083C876.858 316.463 877.122 313.704 876.073 311.884C875.146 310.274 873.11 309.277 870.021 308.918Z" fill="#181818"/>
</g>
<g clip-path="url(#clip2_19_2)">
<path fill-rule="evenodd" clip-rule="evenodd" d="M1056.37 385.677C1044.35 383.984 1034.48 388.801 1024.88 393.894C1016.58 398.291 1005.57 403.858 999.155 410.84C994.373 416.044 990.465 423.475 985.474 430.033C983.667 432.41 981.073 435.057 978.079 438.929C974.839 443.12 970.916 452.907 967.209 444.876C965.697 438.538 965.424 430.817 967.226 422.824C973.445 395.244 1007.11 390.85 1018.49 368.553C1023.53 356.924 1013.31 355.876 1004.07 357.547C978.734 362.136 966.225 382.449 954.3 402.66C947.835 413.619 942.837 425.063 941.506 439.77C909.602 448.036 882.52 461.626 866.069 490.384C852.083 514.834 863.056 542.134 879.107 553.397C892.013 562.454 909.199 565.227 927.837 568.389C946.054 571.481 963.804 572.61 980.73 569.444C994.668 566.839 1013 561.19 1021.66 552.992C1025.03 549.808 1031.54 541.289 1032.91 536.486C1037.85 519.204 1033.2 504.743 1028.32 495.661C1026.3 491.893 1022.72 487.732 1019.49 484.032C1016.2 480.261 1013.2 476.04 1010.2 472.773C1006.48 468.737 1001.16 465.943 998.343 461.641C996.668 459.084 992.602 451.516 994.313 448.873C1002.27 434.516 1008.99 424.825 1019.54 417.874C1032.17 409.56 1052.91 411.135 1058.37 393.968C1058.93 390.233 1057.73 387.892 1056.37 385.677ZM1088.48 653.215C1087.5 659.025 1085.29 665.372 1081.84 670.256C1076.21 678.225 1071.31 683.658 1060.96 685.645C1057.37 686.334 1053.2 685.926 1048.95 686.794C1038.76 688.88 1026.44 691.355 1014.08 691.226C1006.23 691.145 996.29 689.973 986.738 689.322C976.711 688.636 966.998 687.944 961.405 684.682C958.108 682.759 953.394 677.597 953.268 674.406C953.11 670.367 955.774 665.171 957.51 663.447C961.322 659.662 968.039 662.444 972.419 659.242C973.983 642.344 982.524 621.218 993.367 610.356C996.726 606.992 1001.04 602.901 1004.16 601.43C1006.47 600.338 1009.65 601.041 1011.29 598.442C1008.64 592.54 1001.47 596.496 998.543 598.657C985.888 607.994 978.388 620.05 971.453 638.347C969.222 644.229 966.606 647.649 966.112 655.116C954.907 655.841 948.751 662.943 943.837 671.614C940.294 664.946 945.695 653.359 945.032 646.729C938.541 643.019 931.915 656.067 929.005 660.56C924.431 667.621 920.793 673.819 917.192 678.273C908.494 666.8 907.252 647.778 906.881 628.301C906.521 609.487 907.382 585.976 916.422 571.728C941.589 577.315 965.33 579.335 987.874 573.667C1000.93 570.382 1013.71 565.76 1022.56 559.883C1026.92 556.984 1030.26 552.015 1033.37 547.142C1038.11 549.212 1041.15 552.627 1045.14 555.296C1045.09 555.612 1045.05 555.922 1045.01 556.231C1051.61 561.156 1056.83 567.226 1061.6 573.099C1061.93 573.078 1062.26 573.052 1062.6 573.016C1064.78 575.336 1066.78 577.812 1068.05 580.86C1067.98 581.256 1067.93 581.643 1067.89 582.025C1075.84 592.947 1081.16 602.93 1084.62 613.408C1088.36 624.72 1089.58 636.401 1088.91 648.258C1088.84 649.405 1088.77 650.556 1088.63 651.697C1088.59 652.182 1088.55 652.682 1088.48 653.215Z" fill="#D3D3D3"/>
<path fill-rule="evenodd" clip-rule="evenodd" d="M913.706 677.488C913.706 677.488 910.921 634.904 934.541 621.955C958.161 609.006 977.57 620.168 977.57 620.168L962.445 656.918L942.337 677.247L932.398 663.368L913.706 677.488Z" fill="white"/>
<path fill-rule="evenodd" clip-rule="evenodd" d="M994.803 445.477C1002.84 430.964 1009.62 421.167 1020.45 414.035C1024.96 411.065 1030.47 409.317 1035.8 407.626C1045.87 404.43 1055.39 401.411 1058.76 390.802L1061.23 391.29C1060.14 404.388 1048.94 413.968 1042.36 418.513C1036.46 422.589 1029.97 426.031 1023.69 429.36C1018.21 432.269 1013.02 435.017 1008.71 437.938C1007.19 438.973 1005.68 440.38 1004.22 441.739C1001.75 444.041 999.193 446.421 996.273 447.3L993.297 448.196L994.803 445.477Z" fill="white"/>
<path fill-rule="evenodd" clip-rule="evenodd" d="M965.815 444.872C964.128 437.801 964.074 428.341 965.769 420.823C969.354 404.927 981.752 396.513 993.743 388.375C1003.27 381.912 1013.04 376.077 1017.92 366.526C1016.52 373.626 1014.25 379.786 1010.52 385.212C1009.98 385.992 1009.45 386.765 1008.93 387.536C1007.55 389.586 1006.23 391.746 1004.96 393.835C1002.54 397.802 1000.03 401.903 997.024 405.372C995.632 406.978 994.042 408.299 992.503 409.575C991.039 410.79 989.656 411.938 988.465 413.292C986.762 415.224 985.279 417.311 983.708 419.519C982.999 420.518 982.264 421.551 981.505 422.573C976.357 429.503 971.797 435.875 968.129 443.691L966.936 447.002L965.815 444.872Z" fill="white"/>
<path fill-rule="evenodd" clip-rule="evenodd" d="M1032.96 513.115C1032.96 513.115 1051.53 573.428 957.215 574.771C957.215 574.771 939.176 577.445 926.745 567.415L926.047 567.274C957.108 564.685 1006.85 556.361 1032.96 513.115Z" fill="white"/>
<path fill-rule="evenodd" clip-rule="evenodd" d="M963.079 498.685C961.796 511.259 949.187 523.049 935.647 523.066C930.54 523.071 922.205 522.569 919.326 521.17C915.031 519.081 909.841 509.72 910.809 503.216C918.536 504.168 923.67 508.094 930.653 507.642C941.332 506.948 953.252 501.093 962.66 498.636C962.795 498.168 963.106 498.45 963.079 498.685Z" fill="#FCD9E1"/>
<path fill-rule="evenodd" clip-rule="evenodd" d="M926.955 530.232C916.101 528.971 908.77 523.783 904.543 514.373C903.534 512.132 901.091 500.065 903.601 495.15C904.221 493.935 905.102 493.202 906.219 492.97C906.823 492.845 907.357 492.812 907.851 492.869C909.467 493.057 910.224 494.191 910.833 495.102C911.23 495.697 911.606 496.261 912.183 496.596C915.558 497.136 918.281 498.026 920.687 498.812C923.041 499.581 925.073 500.246 927.322 500.507C927.697 500.551 928.076 500.582 928.446 500.601C938.274 501.088 956.036 493.895 964.055 490.023C965.051 489.544 966.062 489.359 967.06 489.475C968.046 489.59 969.017 489.998 969.946 490.689L970.227 490.898L970.277 491.245C971.634 500.6 969.275 509.364 963.454 516.588C957.089 524.489 947.069 529.644 936.652 530.378C933.166 530.624 929.904 530.575 926.958 530.233C926.956 530.232 926.955 530.232 926.955 530.232ZM911.557 504.17C911.202 510.085 915.801 518.518 919.695 520.412C920.419 520.764 922.022 521.27 925.537 521.679C928.501 522.023 932.28 522.227 935.646 522.224C948.168 522.208 960.257 511.781 962.106 499.658C959.088 500.491 955.83 501.644 952.397 502.858C945.219 505.397 937.798 508.022 930.707 508.483C929.592 508.555 928.491 508.525 927.341 508.392C924.612 508.075 922.136 507.232 919.515 506.34C917.033 505.494 914.473 504.623 911.557 504.17Z" fill="#181818"/>
<path fill-rule="evenodd" clip-rule="evenodd" d="M962.346 484.178C962.199 484.161 962.053 484.14 961.907 484.117C959.168 483.665 956.813 481.36 955.907 478.243C955.343 476.303 955.374 474.152 955.994 472.186C956.189 471.57 958.083 466.189 964.601 466.548L964.655 466.551L964.708 466.562C965.923 466.807 969.992 467.882 971.34 471.41C971.794 472.597 971.91 473.968 971.675 475.375C970.677 481.358 967.102 484.731 962.346 484.178Z" fill="white" fill-opacity="0.6"/>
<path fill-rule="evenodd" clip-rule="evenodd" d="M905.575 482.796C903.99 482.848 898.747 482.51 897.794 475.962C897.451 473.469 897.562 471.298 898.12 469.474C899.145 466.12 901.417 464.918 903.503 464.185L903.599 464.151L903.697 464.148C908.285 463.996 910.822 466.285 911.237 470.949C911.497 473.869 911.192 476.506 910.356 478.576C909.128 481.615 907.013 482.749 905.575 482.796Z" fill="white" fill-opacity="0.6"/>
<path fill-rule="evenodd" clip-rule="evenodd" d="M962.191 480.768C958.761 485.502 951.391 485.931 948.926 481.772C940.28 467.195 961.367 456.137 964.049 472.077C964.111 472.309 964.156 472.544 964.188 472.781C964.646 475.955 962.875 479.664 962.191 480.768Z" fill="#181818"/>
<path fill-rule="evenodd" clip-rule="evenodd" d="M903.809 479.5C903.533 477.313 902.902 475.403 903.331 472.658C904.665 466.981 910.692 460.369 917.422 464.54C927.266 470.642 915.645 494.447 903.809 479.5Z" fill="#181818"/>
<path fill-rule="evenodd" clip-rule="evenodd" d="M916.501 689.28C910.904 688.63 907.8 679 905.945 673.246C905.737 672.599 905.548 672.012 905.377 671.509C902.884 664.152 900.61 656.956 900.162 649.801C898.008 615.296 900.757 589.113 908.331 571.93C887.329 567.674 872.122 559.692 863.114 548.193C853.959 536.5 850.367 521.037 853.258 505.77C857.539 483.17 873.182 468.32 886.331 457.908C902.002 445.499 921.379 438.458 936.705 433.713C938.729 418.577 946.32 404.448 951.899 395.075C958.555 383.892 965.87 372.522 974.256 365.109C981.912 358.34 996.046 350.501 1010.68 350.687C1011.4 350.696 1012.17 350.746 1012.95 350.837C1017.79 351.399 1023.8 353.642 1025.54 357.236C1028.77 363.879 1023.67 375.318 1021.33 379.927C1019.63 383.266 1017.68 386.056 1015.8 388.755C1014.81 390.167 1013.85 391.536 1012.97 392.936C1014.26 392.244 1015.61 391.496 1017 390.727C1020.89 388.566 1025.31 386.117 1030.04 384.063C1040.42 379.566 1048.39 377.72 1054.42 378.421C1057.44 378.772 1059.93 379.79 1061.82 381.447C1065.95 385.066 1066.35 393.144 1064.98 399.117C1061.53 414.103 1047.68 422.74 1036.55 429.68L1035.88 430.097C1032.39 432.279 1028.86 434.296 1025.45 436.245C1016.89 441.134 1008.8 445.759 1002.55 452.19C1003.65 457.06 1007.38 460.63 1010.99 464.087C1011.55 464.623 1012.1 465.157 1012.65 465.692C1016.4 469.375 1019.44 473.25 1022.66 477.353C1023.21 478.049 1023.76 478.749 1024.32 479.452C1024.78 480.035 1025.24 480.613 1025.69 481.185C1033 490.37 1039.32 498.303 1041.58 512.551C1042.7 519.6 1041.83 534.525 1038.1 542.326C1053.37 550.993 1066.09 564.201 1078.04 583.782C1078.99 585.345 1079.99 586.922 1080.95 588.447C1085.06 594.98 1089.32 601.736 1092.12 609.824C1095.55 619.696 1096.32 630.567 1096.76 641.788C1101.07 640.676 1105.22 640.309 1108.83 640.729C1117.16 641.697 1122.04 646.839 1122.21 654.839C1122.35 661.055 1120.33 668.603 1116.82 675.029C1113.18 681.703 1108.82 685.722 1104.85 686.053C1104 686.125 1103.13 686.111 1102.28 686.011L1102.28 686.011C1097.99 685.512 1094.46 683.024 1091.05 680.616C1089.3 679.383 1087.63 678.206 1085.98 677.389C1078.26 690.581 1062.29 692.422 1045.39 694.369C1043.55 694.582 1041.69 694.796 1039.81 695.027C1037.51 695.312 1035.2 695.672 1032.74 696.054C1026.48 697.029 1020 698.037 1013.01 697.881C1007.49 697.758 1001.17 697.063 995.057 696.392C990.679 695.911 986.15 695.413 981.881 695.118C979.315 694.939 977.038 694.733 974.92 694.487C963.856 693.202 952.042 690.444 947.06 680.034C946.903 680.283 946.751 680.536 946.601 680.787C945.52 682.586 944.174 684.826 941.137 684.473C940.942 684.45 940.738 684.416 940.533 684.372C935.738 683.33 935.151 671.824 935.232 665.02C933.639 667.53 931.995 669.928 930.29 672.416C928.519 674.999 926.687 677.671 924.857 680.564C924.541 681.065 924.168 681.724 923.773 682.421C921.988 685.578 919.964 689.155 917.402 689.306C917.102 689.323 916.799 689.315 916.501 689.28ZM1007.51 594.127C1009.74 594.386 1011.45 595.699 1012.44 597.924L1012.72 598.544L1012.36 599.118C1010.99 601.273 1008.8 601.657 1007.04 601.966C1006.18 602.117 1005.36 602.26 1004.7 602.573C1001.69 603.992 997.302 608.204 994.261 611.249C984.126 621.402 975.277 642.085 973.677 659.358L973.625 659.925L973.165 660.262C970.783 662.003 967.957 662.185 965.223 662.362C962.569 662.533 960.062 662.694 958.401 664.344C956.954 665.78 954.387 670.673 954.531 674.356C954.631 676.915 958.847 681.727 962.042 683.59C964.894 685.254 969.218 686.377 975.649 687.124C979.257 687.543 983.277 687.818 986.824 688.06C990.161 688.288 993.567 688.581 996.861 688.864C1003.12 689.402 1009.03 689.91 1014.1 689.962C1026.52 690.091 1038.82 687.577 1048.7 685.556C1051.05 685.075 1053.32 684.972 1055.52 684.873C1057.38 684.789 1059.13 684.71 1060.72 684.403C1070.98 682.435 1075.7 676.752 1080.8 669.527C1083.84 665.238 1086.18 659.224 1087.23 653.027C1091.53 620.076 1078.69 597.55 1067.03 581.607L1066.94 581.485L1066.88 581.345C1065.61 578.287 1063.54 575.858 1061.68 573.884L1061.64 573.849L1061.61 573.812C1056.68 567.706 1051.28 561.328 1044.42 556.334C1042.96 555.353 1041.62 554.274 1040.32 553.231C1038.24 551.562 1036.27 549.975 1033.83 548.757C1030.71 553.609 1027.5 558.122 1023.26 560.936C1012.99 567.762 998.515 572.294 988.182 574.894C973.866 578.493 958.263 579.239 940.48 577.173C933.156 576.322 925.475 575.007 917.026 573.156C908.41 587.53 907.823 611.429 908.145 628.277C908.487 646.229 909.489 664.652 917.237 676.163C919.499 673.172 921.818 669.508 924.449 665.351C925.564 663.59 926.717 661.769 927.944 659.874C928.306 659.315 928.727 658.621 929.213 657.818C932.506 652.383 937.483 644.17 943.327 644.849C944.128 644.942 944.912 645.206 945.659 645.633L946.225 645.956L946.29 646.604C946.567 649.373 945.891 652.782 945.175 656.392C944.318 660.712 943.438 665.149 944.13 668.632C948.435 661.65 954.414 655.031 964.94 653.947C965.43 648.932 966.889 645.681 968.429 642.251C969.04 640.889 969.673 639.479 970.272 637.899C977.729 618.225 985.703 606.561 997.793 597.641C999.068 596.699 1003.54 593.665 1007.51 594.127ZM1090.69 669.979C1094.47 673.097 1098.7 675.378 1103.56 676.924C1108.42 673.177 1113.29 665.464 1112.94 654.547L1112.94 654.459L1112.95 654.371C1113.39 650.243 1110.27 649.003 1107.58 648.69C1103.45 648.21 1098.25 649.797 1096.66 651.982C1095.43 657.964 1093.76 664.682 1090.69 669.979ZM1012.73 358.31C1010.43 358.043 1007.52 358.209 1004.3 358.791C978.941 363.382 966.428 384.591 955.388 403.302C949.949 412.524 944.195 424.082 942.765 439.884L942.685 440.77L941.823 440.993C904.439 450.68 881.414 466.106 867.167 491.011C853.94 514.134 863.443 540.861 879.834 552.363C892.248 561.075 909.096 563.93 926.932 566.953L928.049 567.143C932.271 567.859 936.363 568.45 940.212 568.897C955.391 570.66 968.569 570.433 980.498 568.202C994.506 565.584 1012.45 559.973 1020.79 552.074C1024.21 548.84 1030.44 540.541 1031.69 536.139C1036.55 519.139 1031.94 505.068 1027.21 496.258C1025.32 492.74 1022.03 488.861 1018.54 484.863C1017 483.103 1015.53 481.249 1014.11 479.455C1012.44 477.347 1010.86 475.356 1009.27 473.629C1007.78 472.008 1005.96 470.55 1004.2 469.139C1001.66 467.105 999.036 465.002 997.286 462.334C997.219 462.232 990.68 452.16 993.252 448.187L993.504 447.797L993.948 447.663C996.304 446.953 998.536 444.874 1000.9 442.674C1002.43 441.248 1004.01 439.774 1005.7 438.629C1010.12 435.631 1015.36 432.852 1020.91 429.91C1027.13 426.615 1033.55 423.208 1039.33 419.216C1045.54 414.925 1056.11 405.926 1057.11 393.864L1057.12 393.823L1057.12 393.782C1057.58 390.736 1056.74 388.785 1055.6 386.85C1055.52 386.84 1055.44 386.831 1055.36 386.822C1044.4 385.549 1035.34 389.777 1025.47 395.011L1023.83 395.878C1015.86 400.087 1005.94 405.325 1000.08 411.695C997.356 414.665 994.91 418.393 992.32 422.338C990.479 425.143 988.575 428.044 986.479 430.798C985.632 431.913 984.646 433.051 983.505 434.368C982.184 435.894 980.686 437.622 979.077 439.702C978.449 440.515 977.78 441.572 977.072 442.691C974.948 446.047 972.752 449.516 969.939 449.189C968.423 449.013 967.154 447.776 966.06 445.406L965.814 444.871L966.063 444.339C969.832 436.312 974.468 429.83 979.699 422.788C980.442 421.787 981.169 420.765 981.871 419.777C983.41 417.613 985.001 415.375 986.79 413.344C988.112 411.842 989.637 410.576 991.112 409.353C992.639 408.085 994.081 406.888 995.338 405.439C998.208 402.128 1000.55 398.297 1003.02 394.24C1004.31 392.128 1005.65 389.943 1007.06 387.847C1007.58 387.069 1008.12 386.289 1008.66 385.503C1012.24 380.288 1015.95 374.896 1017.25 368.308L1017.27 368.174L1017.33 368.05C1018.7 364.892 1018.93 362.485 1018.01 360.898C1017.2 359.494 1015.43 358.623 1012.73 358.31Z" fill="#181818"/>
</g>
<g clip-path="url(#clip3_19_2)">
<path fill-rule="evenodd" clip-rule="evenodd" d="M1188.53 430.519C1177.34 428.943 1168.15 433.428 1159.21 438.17C1151.48 442.264 1141.23 447.447 1135.26 453.948C1130.81 458.793 1127.17 465.711 1122.52 471.818C1120.84 474.031 1118.42 476.495 1115.64 480.1C1112.62 484.003 1108.97 493.115 1105.51 485.638C1104.11 479.736 1103.85 472.547 1105.53 465.105C1111.32 439.427 1142.66 435.335 1153.26 414.575C1157.96 403.748 1148.44 402.772 1139.84 404.328C1116.25 408.601 1104.6 427.514 1093.5 446.332C1087.48 456.536 1082.82 467.19 1081.58 480.883C1051.88 488.58 1026.66 501.233 1011.35 528.009C998.324 550.774 1008.54 576.191 1023.49 586.678C1035.5 595.111 1051.5 597.693 1068.86 600.637C1085.82 603.515 1102.35 604.567 1118.1 601.619C1131.08 599.194 1148.15 593.934 1156.21 586.302C1159.35 583.337 1165.41 575.405 1166.69 570.933C1171.28 554.842 1166.95 541.378 1162.41 532.922C1160.53 529.414 1157.2 525.54 1154.2 522.095C1151.13 518.583 1148.34 514.654 1145.54 511.612C1142.08 507.854 1137.13 505.252 1134.5 501.247C1132.94 498.866 1129.16 491.82 1130.75 489.359C1138.16 475.991 1144.42 466.969 1154.24 460.497C1166 452.756 1185.31 454.222 1190.39 438.239C1190.91 434.761 1189.79 432.581 1188.53 430.519ZM1218.43 679.616C1217.51 685.026 1215.45 690.936 1212.24 695.483C1207 702.902 1202.44 707.96 1192.81 709.81C1189.46 710.453 1185.58 710.072 1181.63 710.881C1172.13 712.823 1160.66 715.127 1149.16 715.007C1141.85 714.932 1132.59 713.84 1123.7 713.234C1114.36 712.595 1105.32 711.952 1100.11 708.914C1097.04 707.124 1092.65 702.318 1092.53 699.346C1092.39 695.586 1094.87 690.748 1096.48 689.143C1100.03 685.618 1106.29 688.209 1110.37 685.227C1111.82 669.494 1119.77 649.824 1129.87 639.711C1133 636.58 1137.02 632.77 1139.92 631.401C1142.07 630.384 1145.03 631.039 1146.56 628.618C1144.09 623.123 1137.42 626.806 1134.69 628.819C1122.91 637.512 1115.92 648.737 1109.47 665.773C1107.39 671.25 1104.95 674.434 1104.49 681.386C1094.06 682.061 1088.33 688.674 1083.75 696.747C1080.46 690.539 1085.48 679.75 1084.87 673.577C1078.82 670.123 1072.65 682.272 1069.94 686.455C1065.69 693.029 1062.3 698.799 1058.95 702.947C1050.85 692.264 1049.69 674.553 1049.34 656.419C1049.01 638.902 1049.81 617.012 1058.23 603.746C1081.66 608.948 1103.77 610.829 1124.76 605.551C1136.91 602.493 1148.81 598.189 1157.05 592.717C1161.11 590.018 1164.22 585.392 1167.11 580.855C1171.53 582.782 1174.36 585.962 1178.08 588.447C1178.03 588.74 1177.99 589.03 1177.95 589.317C1184.1 593.902 1188.96 599.554 1193.4 605.022C1193.71 605.003 1194.01 604.978 1194.33 604.945C1196.36 607.105 1198.22 609.41 1199.4 612.248C1199.34 612.617 1199.3 612.977 1199.26 613.333C1206.66 623.502 1211.61 632.797 1214.84 642.553C1218.32 653.085 1219.46 663.961 1218.83 675.001C1218.77 676.068 1218.69 677.14 1218.56 678.203C1218.53 678.654 1218.49 679.12 1218.43 679.616Z" fill="#D3D3D3"/>
<path fill-rule="evenodd" clip-rule="evenodd" d="M1131.21 486.197C1138.69 472.685 1145 463.563 1155.08 456.923C1159.28 454.157 1164.41 452.529 1169.37 450.956C1178.76 447.979 1187.62 445.168 1190.76 435.291L1193.05 435.745C1192.04 447.941 1181.62 456.86 1175.49 461.092C1170 464.887 1163.95 468.091 1158.1 471.191C1153 473.9 1148.17 476.458 1144.16 479.178C1142.74 480.141 1141.33 481.451 1139.97 482.717C1137.67 484.86 1135.29 487.076 1132.58 487.894L1129.8 488.729L1131.21 486.197Z" fill="white"/>
<path fill-rule="evenodd" clip-rule="evenodd" d="M1104.22 485.634C1102.65 479.05 1102.6 470.242 1104.17 463.243C1107.51 448.443 1119.06 440.608 1130.22 433.031C1139.09 427.013 1148.19 421.581 1152.73 412.688C1151.42 419.299 1149.31 425.035 1145.84 430.086C1145.34 430.812 1144.84 431.532 1144.36 432.25C1143.08 434.159 1141.85 436.17 1140.66 438.115C1138.41 441.808 1136.08 445.627 1133.28 448.857C1131.98 450.352 1130.5 451.582 1129.07 452.77C1127.7 453.901 1126.41 454.97 1125.31 456.23C1123.72 458.03 1122.34 459.972 1120.88 462.029C1120.22 462.959 1119.53 463.921 1118.83 464.872C1114.03 471.324 1109.79 477.257 1106.37 484.534L1105.26 487.617L1104.22 485.634Z" fill="white"/>
<path fill-rule="evenodd" clip-rule="evenodd" d="M1166.74 549.173C1166.74 549.173 1184.03 605.329 1096.21 606.579C1096.21 606.579 1079.41 609.069 1067.84 599.73L1067.19 599.599C1096.11 597.188 1142.42 589.438 1166.74 549.173Z" fill="white"/>
<path fill-rule="evenodd" clip-rule="evenodd" d="M1101.67 535.737C1100.47 547.445 1088.74 558.422 1076.13 558.438C1071.37 558.443 1063.61 557.975 1060.93 556.673C1056.93 554.727 1052.1 546.012 1053 539.956C1060.2 540.843 1064.98 544.498 1071.48 544.077C1081.42 543.431 1092.52 537.98 1101.28 535.692C1101.41 535.256 1101.69 535.519 1101.67 535.737Z" fill="#FCD9E1"/>
<path fill-rule="evenodd" clip-rule="evenodd" d="M1068.04 565.11C1057.93 563.936 1051.1 559.106 1047.17 550.345C1046.23 548.258 1043.95 537.023 1046.29 532.446C1046.87 531.315 1047.69 530.632 1048.73 530.417C1049.29 530.3 1049.79 530.269 1050.25 530.323C1051.75 530.498 1052.46 531.553 1053.02 532.402C1053.39 532.956 1053.74 533.481 1054.28 533.792C1057.42 534.295 1059.96 535.124 1062.2 535.856C1064.39 536.572 1066.28 537.191 1068.38 537.434C1068.73 537.475 1069.08 537.504 1069.42 537.521C1078.57 537.975 1095.11 531.278 1102.58 527.673C1103.51 527.226 1104.45 527.054 1105.38 527.162C1106.29 527.269 1107.2 527.649 1108.06 528.293L1108.32 528.488L1108.37 528.81C1109.64 537.521 1107.44 545.68 1102.02 552.407C1096.09 559.763 1086.76 564.562 1077.06 565.246C1073.82 565.475 1070.78 565.429 1068.04 565.111C1068.04 565.111 1068.04 565.11 1068.04 565.11ZM1053.7 540.845C1053.37 546.352 1057.65 554.204 1061.28 555.967C1061.95 556.295 1063.44 556.766 1066.72 557.146C1069.48 557.467 1072.99 557.657 1076.13 557.654C1087.79 557.639 1099.04 547.93 1100.76 536.643C1097.95 537.42 1094.92 538.492 1091.72 539.623C1085.04 541.987 1078.13 544.431 1071.53 544.86C1070.49 544.927 1069.47 544.9 1068.39 544.775C1065.85 544.48 1063.55 543.695 1061.11 542.865C1058.8 542.078 1056.41 541.266 1053.7 540.845Z" fill="#181818"/>
<path fill-rule="evenodd" clip-rule="evenodd" d="M1100.99 522.23C1100.85 522.215 1100.71 522.195 1100.58 522.174C1098.03 521.753 1095.84 519.607 1094.99 516.705C1094.47 514.898 1094.5 512.895 1095.07 511.065C1095.25 510.491 1097.02 505.481 1103.09 505.815L1103.14 505.818L1103.19 505.829C1104.32 506.057 1108.11 507.058 1109.36 510.343C1109.78 511.448 1109.89 512.724 1109.67 514.034C1108.74 519.604 1105.42 522.745 1100.99 522.23Z" fill="white" fill-opacity="0.6"/>
<path fill-rule="evenodd" clip-rule="evenodd" d="M1048.13 520.944C1046.65 520.992 1041.77 520.677 1040.88 514.581C1040.56 512.259 1040.67 510.238 1041.19 508.54C1042.14 505.417 1044.26 504.298 1046.2 503.616L1046.29 503.584L1046.38 503.581C1050.65 503.44 1053.01 505.57 1053.4 509.914C1053.64 512.632 1053.36 515.088 1052.58 517.014C1051.44 519.844 1049.47 520.9 1048.13 520.944Z" fill="white" fill-opacity="0.6"/>
<path fill-rule="evenodd" clip-rule="evenodd" d="M1100.84 519.056C1097.65 523.463 1090.79 523.862 1088.49 519.99C1080.44 506.419 1100.08 496.122 1102.57 510.964C1102.63 511.18 1102.67 511.398 1102.7 511.619C1103.13 514.575 1101.48 518.028 1100.84 519.056Z" fill="#181818"/>
<path fill-rule="evenodd" clip-rule="evenodd" d="M1046.48 517.875C1046.23 515.839 1045.64 514.061 1046.04 511.505C1047.28 506.219 1052.89 500.063 1059.16 503.946C1068.32 509.627 1057.5 531.791 1046.48 517.875Z" fill="#181818"/>
<path fill-rule="evenodd" clip-rule="evenodd" d="M1058.3 713.195C1053.09 712.59 1050.2 703.624 1048.47 698.266C1048.28 697.664 1048.1 697.118 1047.94 696.649C1045.62 689.799 1043.51 683.099 1043.09 676.437C1041.08 644.311 1043.64 619.932 1050.7 603.934C1031.14 599.972 1016.98 592.54 1008.6 581.833C1000.07 570.946 996.726 556.549 999.418 542.334C1003.4 521.292 1017.97 507.466 1030.21 497.771C1044.8 486.218 1062.84 479.662 1077.11 475.244C1079 461.152 1086.07 447.996 1091.26 439.269C1097.46 428.857 1104.27 418.27 1112.08 411.369C1119.2 405.066 1132.36 397.768 1145.99 397.941C1146.66 397.949 1147.37 397.996 1148.1 398.08C1152.61 398.604 1158.2 400.692 1159.83 404.039C1162.83 410.223 1158.08 420.874 1155.9 425.165C1154.33 428.274 1152.51 430.872 1150.75 433.385C1149.84 434.7 1148.94 435.975 1148.12 437.278C1149.32 436.633 1150.58 435.937 1151.87 435.221C1155.5 433.209 1159.61 430.929 1164.02 429.016C1173.68 424.829 1181.1 423.111 1186.72 423.763C1189.53 424.09 1191.85 425.038 1193.61 426.58C1197.45 429.95 1197.83 437.471 1196.54 443.033C1193.33 456.986 1180.44 465.028 1170.08 471.489L1169.45 471.878C1166.2 473.909 1162.92 475.786 1159.74 477.602C1151.77 482.154 1144.24 486.459 1138.42 492.448C1139.45 496.982 1142.92 500.306 1146.28 503.525C1146.8 504.024 1147.32 504.52 1147.82 505.018C1151.31 508.447 1154.15 512.056 1157.15 515.876C1157.66 516.524 1158.17 517.176 1158.69 517.83C1159.12 518.374 1159.54 518.911 1159.97 519.443C1166.77 527.996 1172.65 535.382 1174.76 548.647C1175.8 555.211 1174.99 569.107 1171.52 576.371C1185.74 584.44 1197.58 596.738 1208.71 614.969C1209.59 616.424 1210.52 617.892 1211.41 619.312C1215.24 625.395 1219.2 631.686 1221.82 639.216C1225.01 648.407 1225.73 658.529 1226.13 668.977C1230.15 667.941 1234.01 667.6 1237.37 667.991C1245.13 668.892 1249.67 673.68 1249.83 681.128C1249.96 686.916 1248.08 693.943 1244.82 699.927C1241.42 706.141 1237.36 709.882 1233.67 710.191C1232.88 710.257 1232.07 710.244 1231.27 710.152L1231.27 710.151C1227.28 709.687 1224 707.37 1220.82 705.129C1219.19 703.98 1217.64 702.884 1216.1 702.124C1208.91 714.406 1194.04 716.12 1178.31 717.934C1176.59 718.131 1174.86 718.331 1173.12 718.546C1170.97 718.811 1168.82 719.147 1166.53 719.502C1160.7 720.41 1154.66 721.349 1148.15 721.203C1143.02 721.089 1137.13 720.442 1131.44 719.817C1127.37 719.369 1123.15 718.906 1119.18 718.63C1116.79 718.465 1114.67 718.273 1112.69 718.044C1102.39 716.847 1091.39 714.279 1086.76 704.587C1086.61 704.818 1086.47 705.054 1086.33 705.287C1085.32 706.963 1084.07 709.048 1081.24 708.719C1081.06 708.698 1080.87 708.667 1080.68 708.625C1076.21 707.656 1075.67 696.942 1075.74 690.608C1074.26 692.945 1072.73 695.177 1071.14 697.493C1069.49 699.899 1067.79 702.386 1066.08 705.08C1065.79 705.546 1065.44 706.16 1065.07 706.809C1063.41 709.748 1061.53 713.079 1059.14 713.219C1058.86 713.236 1058.58 713.228 1058.3 713.195ZM1143.04 624.601C1145.12 624.842 1146.7 626.064 1147.63 628.137L1147.89 628.714L1147.55 629.248C1146.28 631.254 1144.24 631.612 1142.6 631.9C1141.8 632.041 1141.04 632.174 1140.42 632.465C1137.62 633.786 1133.53 637.708 1130.7 640.543C1121.27 649.996 1113.03 669.253 1111.54 685.335L1111.49 685.864L1111.06 686.177C1108.84 687.799 1106.21 687.968 1103.67 688.132C1101.19 688.292 1098.86 688.442 1097.31 689.978C1095.97 691.315 1093.58 695.871 1093.71 699.3C1093.8 701.683 1097.73 706.163 1100.7 707.898C1103.36 709.447 1107.39 710.492 1113.37 711.188C1116.73 711.578 1120.48 711.834 1123.78 712.059C1126.88 712.271 1130.06 712.544 1133.12 712.808C1138.95 713.309 1144.45 713.782 1149.17 713.83C1160.74 713.951 1172.19 711.609 1181.39 709.728C1183.58 709.28 1185.69 709.184 1187.74 709.092C1189.47 709.014 1191.1 708.94 1192.58 708.655C1202.13 706.822 1206.53 701.531 1211.28 694.804C1214.1 690.81 1216.28 685.211 1217.26 679.441C1221.26 648.761 1209.31 627.788 1198.45 612.944L1198.37 612.83L1198.32 612.7C1197.13 609.853 1195.2 607.591 1193.47 605.753L1193.44 605.721L1193.41 605.686C1188.82 600.001 1183.8 594.063 1177.4 589.413C1176.04 588.499 1174.79 587.495 1173.58 586.524C1171.65 584.97 1169.81 583.492 1167.55 582.359C1164.64 586.875 1161.65 591.078 1157.7 593.698C1148.14 600.053 1134.66 604.273 1125.04 606.693C1111.71 610.045 1097.19 610.739 1080.63 608.815C1073.81 608.023 1066.66 606.799 1058.79 605.076C1050.77 618.459 1050.22 640.711 1050.52 656.397C1050.84 673.111 1051.77 690.265 1058.99 700.983C1061.09 698.197 1063.25 694.786 1065.7 690.916C1066.74 689.276 1067.81 687.58 1068.96 685.816C1069.29 685.296 1069.69 684.65 1070.14 683.902C1073.2 678.841 1077.84 671.195 1083.28 671.827C1084.02 671.913 1084.76 672.159 1085.45 672.556L1085.98 672.857L1086.04 673.461C1086.3 676.039 1085.67 679.213 1085 682.574C1084.2 686.596 1083.38 690.728 1084.03 693.971C1088.04 687.47 1093.6 681.307 1103.4 680.297C1103.86 675.628 1105.22 672.601 1106.65 669.408C1107.22 668.139 1107.81 666.827 1108.37 665.356C1115.31 647.038 1122.73 636.178 1133.99 627.873C1135.18 626.996 1139.34 624.171 1143.04 624.601ZM1220.48 695.225C1224 698.128 1227.94 700.251 1232.47 701.691C1236.99 698.202 1241.53 691.021 1241.2 680.856L1241.2 680.774L1241.21 680.693C1241.62 676.849 1238.72 675.694 1236.21 675.403C1232.37 674.956 1227.53 676.434 1226.04 678.468C1224.9 684.037 1223.34 690.292 1220.48 695.225ZM1147.9 405.038C1145.76 404.789 1143.04 404.944 1140.05 405.486C1116.44 409.761 1104.79 429.508 1094.51 446.93C1089.44 455.515 1084.09 466.277 1082.76 480.989L1082.68 481.815L1081.88 482.022C1047.07 491.041 1025.63 505.404 1012.37 528.593C1000.05 550.122 1008.9 575.006 1024.16 585.715C1035.72 593.827 1051.41 596.486 1068.01 599.3L1069.05 599.477C1072.98 600.144 1076.79 600.693 1080.38 601.11C1094.51 602.752 1106.78 602.54 1117.89 600.463C1130.93 598.025 1147.63 592.801 1155.41 585.447C1158.59 582.436 1164.38 574.708 1165.56 570.61C1170.08 554.782 1165.78 541.681 1161.38 533.478C1159.62 530.203 1156.56 526.591 1153.31 522.868C1151.88 521.23 1150.51 519.503 1149.18 517.834C1147.63 515.871 1146.15 514.017 1144.67 512.408C1143.29 510.9 1141.59 509.542 1139.95 508.228C1137.59 506.334 1135.15 504.376 1133.52 501.892C1133.46 501.798 1127.37 492.419 1129.76 488.72L1130 488.357L1130.41 488.233C1132.6 487.572 1134.68 485.636 1136.88 483.587C1138.31 482.26 1139.78 480.887 1141.35 479.822C1145.47 477.03 1150.35 474.442 1155.52 471.703C1161.3 468.635 1167.28 465.463 1172.67 461.747C1178.45 457.751 1188.29 449.372 1189.22 438.142L1189.22 438.103L1189.23 438.065C1189.65 435.229 1188.88 433.413 1187.81 431.611C1187.74 431.602 1187.66 431.593 1187.59 431.585C1177.39 430.4 1168.95 434.337 1159.76 439.209L1158.23 440.017C1150.81 443.936 1141.58 448.812 1136.12 454.744C1133.58 457.509 1131.31 460.98 1128.89 464.653C1127.18 467.265 1125.41 469.965 1123.46 472.53C1122.67 473.568 1121.75 474.627 1120.69 475.854C1119.46 477.274 1118.06 478.883 1116.57 480.82C1115.98 481.577 1115.36 482.562 1114.7 483.603C1112.72 486.728 1110.68 489.958 1108.06 489.653C1106.64 489.489 1105.46 488.337 1104.45 486.131L1104.22 485.633L1104.45 485.138C1107.96 477.663 1112.27 471.628 1117.14 465.073C1117.84 464.14 1118.51 463.189 1119.17 462.269C1120.6 460.254 1122.08 458.17 1123.75 456.279C1124.98 454.881 1126.4 453.702 1127.77 452.563C1129.19 451.383 1130.53 450.268 1131.7 448.918C1134.38 445.836 1136.55 442.269 1138.86 438.492C1140.06 436.525 1141.3 434.491 1142.62 432.539C1143.1 431.815 1143.6 431.089 1144.11 430.357C1147.44 425.502 1150.89 420.481 1152.1 414.347L1152.13 414.223L1152.18 414.107C1153.45 411.167 1153.67 408.926 1152.82 407.448C1152.06 406.14 1150.41 405.33 1147.9 405.038Z" fill="#181818"/>
</g>
</g>
<defs>
<clipPath id="clip0_19_2">
<rect width="1200" height="630" fill="white"/>
</clipPath>
<clipPath id="clip1_19_2">
<rect width="404.716" height="404.716" fill="white" transform="translate(655.223 271.602) rotate(6.6264)"/>
</clipPath>
<clipPath id="clip2_19_2">
<rect width="353.044" height="353.044" fill="white" transform="translate(825.36 325.759) rotate(6.6264)"/>
</clipPath>
<clipPath id="clip3_19_2">
<rect width="328.71" height="328.71" fill="white" transform="translate(973.443 374.731) rotate(6.6264)"/>
</clipPath>
</defs>
</svg>
